<mxfile host="app.diagrams.net" agent="Mozilla/5.0 (Windows NT 10.0; Win64; x64) AppleWebKit/537.36 (KHTML, like Gecko) Chrome/127.0.0.0 Safari/537.36" version="24.7.8">
  <diagram name="Página-1" id="Ulycf_V23cOKkjaKp2Gk">
    <mxGraphModel dx="1434" dy="780" grid="1" gridSize="10" guides="1" tooltips="1" connect="1" arrows="1" fold="1" page="1" pageScale="1" pageWidth="827" pageHeight="1169" math="0" shadow="0">
      <root>
        <mxCell id="0" />
        <mxCell id="1" parent="0" />
        <mxCell id="MBTmb7HDNMeK6lEijqX2-1" value="Usuarios" style="rounded=0;whiteSpace=wrap;html=1;" vertex="1" parent="1">
          <mxGeometry x="130" y="180" width="90" height="40" as="geometry" />
        </mxCell>
        <mxCell id="MBTmb7HDNMeK6lEijqX2-2" value="Multas" style="rounded=0;whiteSpace=wrap;html=1;" vertex="1" parent="1">
          <mxGeometry x="130" y="450" width="90" height="40" as="geometry" />
        </mxCell>
        <mxCell id="MBTmb7HDNMeK6lEijqX2-3" value="Préstamos" style="rounded=0;whiteSpace=wrap;html=1;" vertex="1" parent="1">
          <mxGeometry x="440" y="180" width="90" height="40" as="geometry" />
        </mxCell>
        <mxCell id="MBTmb7HDNMeK6lEijqX2-4" value="Libros" style="rounded=0;whiteSpace=wrap;html=1;" vertex="1" parent="1">
          <mxGeometry x="440" y="460" width="90" height="40" as="geometry" />
        </mxCell>
        <mxCell id="MBTmb7HDNMeK6lEijqX2-10" style="rounded=0;orthogonalLoop=1;jettySize=auto;html=1;exitX=1;exitY=0.5;exitDx=0;exitDy=0;entryX=0;entryY=0.5;entryDx=0;entryDy=0;endArrow=none;endFill=0;" edge="1" parent="1" source="MBTmb7HDNMeK6lEijqX2-5" target="MBTmb7HDNMeK6lEijqX2-1">
          <mxGeometry relative="1" as="geometry" />
        </mxCell>
        <mxCell id="MBTmb7HDNMeK6lEijqX2-5" value="&lt;u&gt;id&lt;/u&gt;" style="ellipse;whiteSpace=wrap;html=1;" vertex="1" parent="1">
          <mxGeometry x="40" y="200" width="50" height="40" as="geometry" />
        </mxCell>
        <mxCell id="MBTmb7HDNMeK6lEijqX2-6" value="tipo" style="ellipse;whiteSpace=wrap;html=1;" vertex="1" parent="1">
          <mxGeometry x="50" y="130" width="50" height="40" as="geometry" />
        </mxCell>
        <mxCell id="MBTmb7HDNMeK6lEijqX2-7" value="nombre" style="ellipse;whiteSpace=wrap;html=1;" vertex="1" parent="1">
          <mxGeometry x="110" y="80" width="50" height="40" as="geometry" />
        </mxCell>
        <mxCell id="MBTmb7HDNMeK6lEijqX2-8" value="correo" style="ellipse;whiteSpace=wrap;html=1;" vertex="1" parent="1">
          <mxGeometry x="60" y="250" width="50" height="40" as="geometry" />
        </mxCell>
        <mxCell id="MBTmb7HDNMeK6lEijqX2-9" value="teléfono" style="ellipse;whiteSpace=wrap;html=1;" vertex="1" parent="1">
          <mxGeometry x="240" y="120" width="50" height="40" as="geometry" />
        </mxCell>
        <mxCell id="MBTmb7HDNMeK6lEijqX2-11" style="rounded=0;orthogonalLoop=1;jettySize=auto;html=1;exitX=0.25;exitY=0;exitDx=0;exitDy=0;entryX=0.5;entryY=1;entryDx=0;entryDy=0;endArrow=none;endFill=0;" edge="1" parent="1" source="MBTmb7HDNMeK6lEijqX2-1" target="MBTmb7HDNMeK6lEijqX2-7">
          <mxGeometry relative="1" as="geometry">
            <mxPoint x="150" y="160" as="sourcePoint" />
            <mxPoint x="190" y="140" as="targetPoint" />
          </mxGeometry>
        </mxCell>
        <mxCell id="MBTmb7HDNMeK6lEijqX2-12" style="rounded=0;orthogonalLoop=1;jettySize=auto;html=1;exitX=0;exitY=1;exitDx=0;exitDy=0;endArrow=none;endFill=0;" edge="1" parent="1" source="MBTmb7HDNMeK6lEijqX2-9">
          <mxGeometry relative="1" as="geometry">
            <mxPoint x="110" y="240" as="sourcePoint" />
            <mxPoint x="220" y="180" as="targetPoint" />
          </mxGeometry>
        </mxCell>
        <mxCell id="MBTmb7HDNMeK6lEijqX2-13" style="rounded=0;orthogonalLoop=1;jettySize=auto;html=1;exitX=1;exitY=0;exitDx=0;exitDy=0;endArrow=none;endFill=0;entryX=0.25;entryY=1;entryDx=0;entryDy=0;" edge="1" parent="1" source="MBTmb7HDNMeK6lEijqX2-8" target="MBTmb7HDNMeK6lEijqX2-1">
          <mxGeometry relative="1" as="geometry">
            <mxPoint x="120" y="250" as="sourcePoint" />
            <mxPoint x="180" y="180" as="targetPoint" />
          </mxGeometry>
        </mxCell>
        <mxCell id="MBTmb7HDNMeK6lEijqX2-14" style="rounded=0;orthogonalLoop=1;jettySize=auto;html=1;exitX=1;exitY=1;exitDx=0;exitDy=0;endArrow=none;endFill=0;entryX=0;entryY=0.25;entryDx=0;entryDy=0;" edge="1" parent="1" source="MBTmb7HDNMeK6lEijqX2-6" target="MBTmb7HDNMeK6lEijqX2-1">
          <mxGeometry relative="1" as="geometry">
            <mxPoint x="130" y="260" as="sourcePoint" />
            <mxPoint x="130" y="200" as="targetPoint" />
          </mxGeometry>
        </mxCell>
        <mxCell id="MBTmb7HDNMeK6lEijqX2-16" value="fecha_registro" style="ellipse;whiteSpace=wrap;html=1;" vertex="1" parent="1">
          <mxGeometry x="10" y="40" width="100" height="40" as="geometry" />
        </mxCell>
        <mxCell id="MBTmb7HDNMeK6lEijqX2-17" style="rounded=0;orthogonalLoop=1;jettySize=auto;html=1;exitX=0;exitY=0;exitDx=0;exitDy=0;endArrow=none;endFill=0;entryX=0.58;entryY=0.925;entryDx=0;entryDy=0;entryPerimeter=0;" edge="1" parent="1" source="MBTmb7HDNMeK6lEijqX2-1" target="MBTmb7HDNMeK6lEijqX2-16">
          <mxGeometry relative="1" as="geometry">
            <mxPoint x="103" y="174" as="sourcePoint" />
            <mxPoint x="140" y="200" as="targetPoint" />
          </mxGeometry>
        </mxCell>
        <mxCell id="MBTmb7HDNMeK6lEijqX2-18" value="Pide" style="rhombus;whiteSpace=wrap;html=1;" vertex="1" parent="1">
          <mxGeometry x="280" y="160" width="80" height="80" as="geometry" />
        </mxCell>
        <mxCell id="MBTmb7HDNMeK6lEijqX2-19" style="rounded=0;orthogonalLoop=1;jettySize=auto;html=1;exitX=0;exitY=0.5;exitDx=0;exitDy=0;endArrow=none;endFill=0;entryX=1;entryY=0.5;entryDx=0;entryDy=0;" edge="1" parent="1" source="MBTmb7HDNMeK6lEijqX2-18" target="MBTmb7HDNMeK6lEijqX2-1">
          <mxGeometry relative="1" as="geometry">
            <mxPoint x="257" y="164" as="sourcePoint" />
            <mxPoint x="230" y="190" as="targetPoint" />
          </mxGeometry>
        </mxCell>
        <mxCell id="MBTmb7HDNMeK6lEijqX2-20" style="rounded=0;orthogonalLoop=1;jettySize=auto;html=1;exitX=0;exitY=0.5;exitDx=0;exitDy=0;endArrow=none;endFill=0;entryX=1;entryY=0.5;entryDx=0;entryDy=0;" edge="1" parent="1" source="MBTmb7HDNMeK6lEijqX2-3" target="MBTmb7HDNMeK6lEijqX2-18">
          <mxGeometry relative="1" as="geometry">
            <mxPoint x="290" y="210" as="sourcePoint" />
            <mxPoint x="230" y="210" as="targetPoint" />
          </mxGeometry>
        </mxCell>
        <mxCell id="MBTmb7HDNMeK6lEijqX2-21" value="Tiene" style="rhombus;whiteSpace=wrap;html=1;" vertex="1" parent="1">
          <mxGeometry x="135" y="300" width="80" height="80" as="geometry" />
        </mxCell>
        <mxCell id="MBTmb7HDNMeK6lEijqX2-22" style="rounded=0;orthogonalLoop=1;jettySize=auto;html=1;exitX=0.5;exitY=0;exitDx=0;exitDy=0;endArrow=none;endFill=0;entryX=0.5;entryY=1;entryDx=0;entryDy=0;" edge="1" parent="1" source="MBTmb7HDNMeK6lEijqX2-21" target="MBTmb7HDNMeK6lEijqX2-1">
          <mxGeometry relative="1" as="geometry">
            <mxPoint x="290" y="210" as="sourcePoint" />
            <mxPoint x="230" y="210" as="targetPoint" />
          </mxGeometry>
        </mxCell>
        <mxCell id="MBTmb7HDNMeK6lEijqX2-23" style="rounded=0;orthogonalLoop=1;jettySize=auto;html=1;exitX=0.5;exitY=0;exitDx=0;exitDy=0;endArrow=none;endFill=0;" edge="1" parent="1" source="MBTmb7HDNMeK6lEijqX2-2">
          <mxGeometry relative="1" as="geometry">
            <mxPoint x="185" y="310" as="sourcePoint" />
            <mxPoint x="175" y="380" as="targetPoint" />
          </mxGeometry>
        </mxCell>
        <mxCell id="MBTmb7HDNMeK6lEijqX2-24" value="Contiene" style="rhombus;whiteSpace=wrap;html=1;" vertex="1" parent="1">
          <mxGeometry x="445" y="300" width="80" height="80" as="geometry" />
        </mxCell>
        <mxCell id="MBTmb7HDNMeK6lEijqX2-25" style="rounded=0;orthogonalLoop=1;jettySize=auto;html=1;exitX=0.5;exitY=1;exitDx=0;exitDy=0;endArrow=none;endFill=0;entryX=0.5;entryY=0;entryDx=0;entryDy=0;" edge="1" parent="1" source="MBTmb7HDNMeK6lEijqX2-3" target="MBTmb7HDNMeK6lEijqX2-24">
          <mxGeometry relative="1" as="geometry">
            <mxPoint x="185" y="310" as="sourcePoint" />
            <mxPoint x="185" y="230" as="targetPoint" />
          </mxGeometry>
        </mxCell>
        <mxCell id="MBTmb7HDNMeK6lEijqX2-26" style="rounded=0;orthogonalLoop=1;jettySize=auto;html=1;exitX=0.5;exitY=0;exitDx=0;exitDy=0;endArrow=none;endFill=0;entryX=0.5;entryY=1;entryDx=0;entryDy=0;" edge="1" parent="1" source="MBTmb7HDNMeK6lEijqX2-4" target="MBTmb7HDNMeK6lEijqX2-24">
          <mxGeometry relative="1" as="geometry">
            <mxPoint x="495" y="230" as="sourcePoint" />
            <mxPoint x="495" y="310" as="targetPoint" />
          </mxGeometry>
        </mxCell>
        <mxCell id="MBTmb7HDNMeK6lEijqX2-27" value="&lt;u&gt;ISBN&lt;/u&gt;" style="ellipse;whiteSpace=wrap;html=1;" vertex="1" parent="1">
          <mxGeometry x="540" y="400" width="50" height="40" as="geometry" />
        </mxCell>
        <mxCell id="MBTmb7HDNMeK6lEijqX2-28" style="rounded=0;orthogonalLoop=1;jettySize=auto;html=1;exitX=0;exitY=1;exitDx=0;exitDy=0;endArrow=none;endFill=0;" edge="1" parent="1" source="MBTmb7HDNMeK6lEijqX2-27">
          <mxGeometry relative="1" as="geometry">
            <mxPoint x="410" y="520" as="sourcePoint" />
            <mxPoint x="520" y="460" as="targetPoint" />
          </mxGeometry>
        </mxCell>
        <mxCell id="MBTmb7HDNMeK6lEijqX2-29" value="título" style="ellipse;whiteSpace=wrap;html=1;" vertex="1" parent="1">
          <mxGeometry x="570" y="470" width="50" height="40" as="geometry" />
        </mxCell>
        <mxCell id="MBTmb7HDNMeK6lEijqX2-30" style="rounded=0;orthogonalLoop=1;jettySize=auto;html=1;exitX=0;exitY=0.5;exitDx=0;exitDy=0;endArrow=none;endFill=0;entryX=1;entryY=0.75;entryDx=0;entryDy=0;" edge="1" parent="1" source="MBTmb7HDNMeK6lEijqX2-29" target="MBTmb7HDNMeK6lEijqX2-4">
          <mxGeometry relative="1" as="geometry">
            <mxPoint x="420" y="560" as="sourcePoint" />
            <mxPoint x="530" y="500" as="targetPoint" />
          </mxGeometry>
        </mxCell>
        <mxCell id="MBTmb7HDNMeK6lEijqX2-31" value="editorial" style="ellipse;whiteSpace=wrap;html=1;" vertex="1" parent="1">
          <mxGeometry x="445" y="540" width="60" height="45" as="geometry" />
        </mxCell>
        <mxCell id="MBTmb7HDNMeK6lEijqX2-32" value="autor" style="ellipse;shape=doubleEllipse;whiteSpace=wrap;html=1;" vertex="1" parent="1">
          <mxGeometry x="525" y="530" width="60" height="50" as="geometry" />
        </mxCell>
        <mxCell id="MBTmb7HDNMeK6lEijqX2-33" value="año" style="ellipse;whiteSpace=wrap;html=1;" vertex="1" parent="1">
          <mxGeometry x="370" y="405" width="50" height="35" as="geometry" />
        </mxCell>
        <mxCell id="MBTmb7HDNMeK6lEijqX2-34" style="rounded=0;orthogonalLoop=1;jettySize=auto;html=1;exitX=1;exitY=1;exitDx=0;exitDy=0;endArrow=none;endFill=0;entryX=0.122;entryY=0.025;entryDx=0;entryDy=0;entryPerimeter=0;" edge="1" parent="1" source="MBTmb7HDNMeK6lEijqX2-33" target="MBTmb7HDNMeK6lEijqX2-4">
          <mxGeometry relative="1" as="geometry">
            <mxPoint x="557" y="444" as="sourcePoint" />
            <mxPoint x="530" y="470" as="targetPoint" />
          </mxGeometry>
        </mxCell>
        <mxCell id="MBTmb7HDNMeK6lEijqX2-35" style="rounded=0;orthogonalLoop=1;jettySize=auto;html=1;exitX=0.5;exitY=0;exitDx=0;exitDy=0;endArrow=none;endFill=0;" edge="1" parent="1" source="MBTmb7HDNMeK6lEijqX2-31">
          <mxGeometry relative="1" as="geometry">
            <mxPoint x="433" y="525" as="sourcePoint" />
            <mxPoint x="480" y="500" as="targetPoint" />
          </mxGeometry>
        </mxCell>
        <mxCell id="MBTmb7HDNMeK6lEijqX2-36" style="rounded=0;orthogonalLoop=1;jettySize=auto;html=1;exitX=0;exitY=0;exitDx=0;exitDy=0;endArrow=none;endFill=0;entryX=0.856;entryY=1;entryDx=0;entryDy=0;entryPerimeter=0;" edge="1" parent="1" source="MBTmb7HDNMeK6lEijqX2-32" target="MBTmb7HDNMeK6lEijqX2-4">
          <mxGeometry relative="1" as="geometry">
            <mxPoint x="443" y="535" as="sourcePoint" />
            <mxPoint x="460" y="520" as="targetPoint" />
          </mxGeometry>
        </mxCell>
        <mxCell id="MBTmb7HDNMeK6lEijqX2-37" value="ejemplares" style="ellipse;whiteSpace=wrap;html=1;" vertex="1" parent="1">
          <mxGeometry x="320" y="450" width="70" height="40" as="geometry" />
        </mxCell>
        <mxCell id="MBTmb7HDNMeK6lEijqX2-38" value="ejemplares_prestados" style="ellipse;whiteSpace=wrap;html=1;" vertex="1" parent="1">
          <mxGeometry x="310" y="510" width="130" height="50" as="geometry" />
        </mxCell>
        <mxCell id="MBTmb7HDNMeK6lEijqX2-39" style="rounded=0;orthogonalLoop=1;jettySize=auto;html=1;exitX=1;exitY=0.5;exitDx=0;exitDy=0;endArrow=none;endFill=0;entryX=0;entryY=0.5;entryDx=0;entryDy=0;" edge="1" parent="1" source="MBTmb7HDNMeK6lEijqX2-37" target="MBTmb7HDNMeK6lEijqX2-4">
          <mxGeometry relative="1" as="geometry">
            <mxPoint x="423" y="445" as="sourcePoint" />
            <mxPoint x="461" y="471" as="targetPoint" />
          </mxGeometry>
        </mxCell>
        <mxCell id="MBTmb7HDNMeK6lEijqX2-40" style="rounded=0;orthogonalLoop=1;jettySize=auto;html=1;exitX=0.745;exitY=0.06;exitDx=0;exitDy=0;endArrow=none;endFill=0;entryX=0;entryY=1;entryDx=0;entryDy=0;exitPerimeter=0;" edge="1" parent="1" source="MBTmb7HDNMeK6lEijqX2-38" target="MBTmb7HDNMeK6lEijqX2-4">
          <mxGeometry relative="1" as="geometry">
            <mxPoint x="400" y="480" as="sourcePoint" />
            <mxPoint x="450" y="490" as="targetPoint" />
          </mxGeometry>
        </mxCell>
        <mxCell id="MBTmb7HDNMeK6lEijqX2-42" value="&lt;u&gt;id&lt;/u&gt;" style="ellipse;whiteSpace=wrap;html=1;" vertex="1" parent="1">
          <mxGeometry x="420" y="70" width="50" height="35" as="geometry" />
        </mxCell>
        <mxCell id="MBTmb7HDNMeK6lEijqX2-43" value="apellido_paterno" style="ellipse;whiteSpace=wrap;html=1;" vertex="1" parent="1">
          <mxGeometry x="130" y="20" width="100" height="40" as="geometry" />
        </mxCell>
        <mxCell id="MBTmb7HDNMeK6lEijqX2-44" value="apellido_materno" style="ellipse;whiteSpace=wrap;html=1;" vertex="1" parent="1">
          <mxGeometry x="215" y="57.5" width="100" height="40" as="geometry" />
        </mxCell>
        <mxCell id="MBTmb7HDNMeK6lEijqX2-45" style="rounded=0;orthogonalLoop=1;jettySize=auto;html=1;exitX=0.5;exitY=0;exitDx=0;exitDy=0;entryX=0.5;entryY=1;entryDx=0;entryDy=0;endArrow=none;endFill=0;" edge="1" parent="1" source="MBTmb7HDNMeK6lEijqX2-1" target="MBTmb7HDNMeK6lEijqX2-43">
          <mxGeometry relative="1" as="geometry">
            <mxPoint x="163" y="190" as="sourcePoint" />
            <mxPoint x="145" y="130" as="targetPoint" />
          </mxGeometry>
        </mxCell>
        <mxCell id="MBTmb7HDNMeK6lEijqX2-46" style="rounded=0;orthogonalLoop=1;jettySize=auto;html=1;exitX=0.75;exitY=0;exitDx=0;exitDy=0;entryX=0.27;entryY=0.938;entryDx=0;entryDy=0;endArrow=none;endFill=0;entryPerimeter=0;" edge="1" parent="1" source="MBTmb7HDNMeK6lEijqX2-1" target="MBTmb7HDNMeK6lEijqX2-44">
          <mxGeometry relative="1" as="geometry">
            <mxPoint x="173" y="200" as="sourcePoint" />
            <mxPoint x="155" y="140" as="targetPoint" />
          </mxGeometry>
        </mxCell>
        <mxCell id="MBTmb7HDNMeK6lEijqX2-47" value="fecha" style="ellipse;whiteSpace=wrap;html=1;" vertex="1" parent="1">
          <mxGeometry x="480" y="62.5" width="50" height="35" as="geometry" />
        </mxCell>
        <mxCell id="MBTmb7HDNMeK6lEijqX2-48" value="fecha_devolucion" style="ellipse;whiteSpace=wrap;html=1;" vertex="1" parent="1">
          <mxGeometry x="535" y="97.5" width="105" height="32.5" as="geometry" />
        </mxCell>
        <mxCell id="MBTmb7HDNMeK6lEijqX2-49" value="estado" style="ellipse;whiteSpace=wrap;html=1;" vertex="1" parent="1">
          <mxGeometry x="585" y="200" width="50" height="35" as="geometry" />
        </mxCell>
        <mxCell id="MBTmb7HDNMeK6lEijqX2-50" value="monto" style="ellipse;whiteSpace=wrap;html=1;" vertex="1" parent="1">
          <mxGeometry x="180" y="550" width="50" height="35" as="geometry" />
        </mxCell>
        <mxCell id="MBTmb7HDNMeK6lEijqX2-51" value="fecha_pago" style="ellipse;whiteSpace=wrap;html=1;" vertex="1" parent="1">
          <mxGeometry x="80" y="545" width="70" height="40" as="geometry" />
        </mxCell>
        <mxCell id="MBTmb7HDNMeK6lEijqX2-52" style="rounded=0;orthogonalLoop=1;jettySize=auto;html=1;exitX=0.5;exitY=0;exitDx=0;exitDy=0;endArrow=none;endFill=0;entryX=0.25;entryY=1;entryDx=0;entryDy=0;" edge="1" parent="1" source="MBTmb7HDNMeK6lEijqX2-51" target="MBTmb7HDNMeK6lEijqX2-2">
          <mxGeometry relative="1" as="geometry">
            <mxPoint x="185" y="460" as="sourcePoint" />
            <mxPoint x="185" y="390" as="targetPoint" />
          </mxGeometry>
        </mxCell>
        <mxCell id="MBTmb7HDNMeK6lEijqX2-53" style="rounded=0;orthogonalLoop=1;jettySize=auto;html=1;exitX=0.5;exitY=0;exitDx=0;exitDy=0;endArrow=none;endFill=0;entryX=0.667;entryY=1;entryDx=0;entryDy=0;entryPerimeter=0;exitPerimeter=0;" edge="1" parent="1" source="MBTmb7HDNMeK6lEijqX2-50" target="MBTmb7HDNMeK6lEijqX2-2">
          <mxGeometry relative="1" as="geometry">
            <mxPoint x="125" y="555" as="sourcePoint" />
            <mxPoint x="163" y="500" as="targetPoint" />
          </mxGeometry>
        </mxCell>
        <mxCell id="MBTmb7HDNMeK6lEijqX2-54" style="rounded=0;orthogonalLoop=1;jettySize=auto;html=1;exitX=0.25;exitY=0;exitDx=0;exitDy=0;endArrow=none;endFill=0;entryX=0.5;entryY=1;entryDx=0;entryDy=0;" edge="1" parent="1" source="MBTmb7HDNMeK6lEijqX2-3" target="MBTmb7HDNMeK6lEijqX2-42">
          <mxGeometry relative="1" as="geometry">
            <mxPoint x="135" y="565" as="sourcePoint" />
            <mxPoint x="173" y="510" as="targetPoint" />
          </mxGeometry>
        </mxCell>
        <mxCell id="MBTmb7HDNMeK6lEijqX2-56" style="rounded=0;orthogonalLoop=1;jettySize=auto;html=1;exitX=0.578;exitY=-0.1;exitDx=0;exitDy=0;endArrow=none;endFill=0;entryX=0.5;entryY=1;entryDx=0;entryDy=0;exitPerimeter=0;" edge="1" parent="1" source="MBTmb7HDNMeK6lEijqX2-3" target="MBTmb7HDNMeK6lEijqX2-47">
          <mxGeometry relative="1" as="geometry">
            <mxPoint x="473" y="190" as="sourcePoint" />
            <mxPoint x="455" y="115" as="targetPoint" />
          </mxGeometry>
        </mxCell>
        <mxCell id="MBTmb7HDNMeK6lEijqX2-57" style="rounded=0;orthogonalLoop=1;jettySize=auto;html=1;exitX=1;exitY=0;exitDx=0;exitDy=0;endArrow=none;endFill=0;entryX=0.41;entryY=1.092;entryDx=0;entryDy=0;entryPerimeter=0;" edge="1" parent="1" source="MBTmb7HDNMeK6lEijqX2-3" target="MBTmb7HDNMeK6lEijqX2-48">
          <mxGeometry relative="1" as="geometry">
            <mxPoint x="483" y="200" as="sourcePoint" />
            <mxPoint x="465" y="125" as="targetPoint" />
          </mxGeometry>
        </mxCell>
        <mxCell id="MBTmb7HDNMeK6lEijqX2-58" style="rounded=0;orthogonalLoop=1;jettySize=auto;html=1;endArrow=none;endFill=0;entryX=0;entryY=0;entryDx=0;entryDy=0;" edge="1" parent="1" target="MBTmb7HDNMeK6lEijqX2-49">
          <mxGeometry relative="1" as="geometry">
            <mxPoint x="530" y="205" as="sourcePoint" />
            <mxPoint x="475" y="135" as="targetPoint" />
          </mxGeometry>
        </mxCell>
        <mxCell id="MBTmb7HDNMeK6lEijqX2-59" value="1" style="text;html=1;align=center;verticalAlign=middle;whiteSpace=wrap;rounded=0;" vertex="1" parent="1">
          <mxGeometry x="170" y="220" width="30" height="30" as="geometry" />
        </mxCell>
        <mxCell id="MBTmb7HDNMeK6lEijqX2-60" value="N" style="text;html=1;align=center;verticalAlign=middle;whiteSpace=wrap;rounded=0;" vertex="1" parent="1">
          <mxGeometry x="170" y="420" width="30" height="30" as="geometry" />
        </mxCell>
        <mxCell id="MBTmb7HDNMeK6lEijqX2-61" value="1" style="text;html=1;align=center;verticalAlign=middle;whiteSpace=wrap;rounded=0;" vertex="1" parent="1">
          <mxGeometry x="220" y="200" width="30" height="30" as="geometry" />
        </mxCell>
        <mxCell id="MBTmb7HDNMeK6lEijqX2-62" value="N" style="text;html=1;align=center;verticalAlign=middle;whiteSpace=wrap;rounded=0;" vertex="1" parent="1">
          <mxGeometry x="410" y="202.5" width="30" height="30" as="geometry" />
        </mxCell>
        <mxCell id="MBTmb7HDNMeK6lEijqX2-63" value="1" style="text;html=1;align=center;verticalAlign=middle;whiteSpace=wrap;rounded=0;" vertex="1" parent="1">
          <mxGeometry x="460" y="220" width="30" height="30" as="geometry" />
        </mxCell>
        <mxCell id="MBTmb7HDNMeK6lEijqX2-64" value="N" style="text;html=1;align=center;verticalAlign=middle;whiteSpace=wrap;rounded=0;" vertex="1" parent="1">
          <mxGeometry x="460" y="430" width="30" height="30" as="geometry" />
        </mxCell>
      </root>
    </mxGraphModel>
  </diagram>
</mxfile>
